<?xml version="1.0" encoding="UTF-8"?>
<!-- Generator: Adobe Illustrator 21.0.2, SVG Export Plug-In . SVG Version: 6.00 Build 0)  -->
<svg version="1.1" id="Capa_1" xmlns="http://www.w3.org/2000/svg" xmlns:xlink="http://www.w3.org/1999/xlink" x="0px" y="0px" viewBox="0 0 284.9 56.5" style="enable-background:new 0 0 284.9 56.5;" xml:space="preserve">
<style type="text/css">
	.st0{fill:#C10F19;}
</style>
<path class="st0" d="M0,56.2l0-14.1l13.8-14l0,28.2H0z M27.5,56.2l0-42.2L41.3,0l0,56.2H27.5z M55.1,56.2l0-56.2l13.8,14l0,42.2  H55.1z M82.6,56.2l0-28.2l13.8,14l0,14.1H82.6z"/>
<path d="M135.4,26.7h-7.6v-2.8h6.9v-3.6h-6.9v-2.6h7.6v-3.7h-11.8v16.5h11.8V26.7z M141.1,23.6l2.5,0.7c0.9,0.3,1.4,0.6,1.4,1.4  c0,1-1.2,1.3-2.6,1.3c-1.9,0-3.9-0.8-5.3-1.7v4c1.2,0.7,3.2,1.3,5.4,1.3c3.7,0,6.8-1.6,6.8-5.2c0-2.5-1.4-4.1-4.4-5l-2.5-0.8  c-0.9-0.3-1.4-0.6-1.4-1.3c0-0.8,0.9-1.2,2.2-1.2c1.9,0,3.5,0.6,5,1.6v-4c-1.4-0.8-3-1.2-5.2-1.2c-3.5,0-6.2,1.8-6.2,5.1  C136.8,21.5,138.3,22.8,141.1,23.6z M158.6,13.7c-4.8,0-8.1,3.6-8.1,8.5c0,4.9,3.3,8.5,8.1,8.5c1.1,0,2.2-0.2,3.2-0.7l1.3,1.6  l2.6-2.1l-1.2-1.5c1.3-1.5,2.2-3.5,2.2-5.9C166.7,17.2,163.4,13.7,158.6,13.7z M161.9,24.9l-1.2-1.5l-2.6,2l1.3,1.6  c-0.2,0.1-0.5,0.1-0.8,0.1c-2.2,0-3.7-2.1-3.7-4.9c0-2.8,1.5-4.7,3.7-4.7c2.2,0,3.7,1.9,3.7,4.7C162.3,23.2,162.1,24.1,161.9,24.9z   M178.4,23.3c0,2.3-1.1,3.5-2.9,3.5c-1.8,0-2.9-1.2-2.9-3.5v-9.4h-4.3v9.7c0,4.5,2.9,7,7.2,7c4.4,0,7.2-2.5,7.2-7v-9.8h-4.3V23.3z   M196.8,26.7h-7.6v-2.8h6.9v-3.6h-6.9v-2.6h7.6v-3.7H185l0,16.5h11.8V26.7z M212.4,19.5c0-3.6-2.5-5.6-6-5.6H199v16.5h4.3V25h1.5  l3.4,5.4h4.8l-3.9-5.9C211.1,23.7,212.4,22,212.4,19.5z M205.9,21.5h-2.7v-4h2.7c1.5,0,2.2,0.8,2.2,2S207.5,21.5,205.9,21.5z   M223.7,30.4h4.8l-3.9-5.9c2-0.8,3.3-2.5,3.3-5c0-3.6-2.5-5.6-6-5.6h-7.4v16.5h4.3V25h1.5L223.7,30.4z M218.7,17.5h2.7  c1.5,0,2.2,0.8,2.2,2s-0.7,2-2.2,2h-2.7V17.5z M240.3,27.2l1.2,3.2h4.4l-6.3-16.5h-4.4l-6.3,16.5h4.3l1.2-3.2H240.3z M237.3,19  l1.7,4.6h-3.4L237.3,19z M137,45.4c0-3.6-2.5-5.6-6-5.6h-7.4v16.5h4.3v-5.4h1.5l3.4,5.4h4.8l-3.9-5.9C135.7,49.6,137,47.9,137,45.4z   M130.5,47.3h-2.7v-4h2.7c1.5,0,2.2,0.8,2.2,2C132.8,46.6,132.1,47.3,130.5,47.3z M139,56.2l11.8,0v-3.7h-7.6v-2.8h6.9V46h-6.9v-2.6  h7.6v-3.7H139V56.2z M160.3,39.8H153v16.5h4.3v-5.1h3c3.6,0,6-2,6-5.7C166.3,41.8,163.8,39.8,160.3,39.8z M159.8,47.5h-2.5v-4.1h2.5  c1.6,0,2.3,0.8,2.3,2.1C162.1,46.7,161.4,47.5,159.8,47.5z M178,49.1c0,2.3-1.1,3.5-2.9,3.5c-1.8,0-2.9-1.2-2.9-3.5v-9.4h-4.3v9.7  c0,4.5,2.9,7,7.2,7c4.4,0,7.2-2.5,7.2-7v-9.8H178V49.1z M195,47.7c1.2-0.4,2.2-1.7,2.2-3.5c0-3-2.1-4.5-5.5-4.5h-7.1v16.5h7.6  c3.4,0,5.5-1.6,5.5-4.6C197.7,49.8,196.6,48.2,195,47.7z M188.8,43.3h2.5c1.3,0,1.9,0.5,1.9,1.5c0,1-0.7,1.5-1.9,1.5h-2.5V43.3z   M191.7,52.7h-2.9v-3.2h2.9c1.2,0,1.9,0.6,1.9,1.6C193.5,52,192.9,52.7,191.7,52.7z M204,39.8h-4.3l0,16.5h11.7v-3.7H204V39.8z   M213.4,56.2h4.3V39.8h-4.3L213.4,56.2z M219.5,48c0,5.1,3.4,8.5,8.5,8.5c1.8,0,3.2-0.4,4.2-1.1v-4.2c-1.2,0.9-2.5,1.3-3.9,1.3  c-2.7,0-4.5-1.7-4.5-4.5c0-2.8,1.8-4.5,4.5-4.5c1.4,0,2.7,0.4,3.9,1.3v-4.2c-1.1-0.7-2.5-1.1-4.2-1.1C223,39.5,219.5,42.9,219.5,48z   M239.7,39.8l-6.3,16.5h4.3l1.2-3.2h6l1.2,3.2h4.4l-6.3-16.5H239.7z M240.1,49.5l1.7-4.6l1.7,4.6H240.1z M262.2,48.8l-6.4-9.1h-4  v16.5h4.2v-9.6l6.9,9.6h3.5l0-16.5h-4.2L262.2,48.8z M278.5,39.8h-4.4l-6.3,16.5h4.3l1.2-3.2h6l1.2,3.2h4.4L278.5,39.8z M274.6,49.5  l1.7-4.6l1.7,4.6H274.6z"/>
</svg>